<svg width="353" height="323" viewBox="0 0 353 323" fill="none" xmlns="http://www.w3.org/2000/svg">
<path d="M333.982 3.2862C397.795 104.114 277.317 231.64 224.547 299.358C223.284 300.98 221.201 301.624 219.227 301.051L192.271 293.238C189.836 292.532 188.312 290.122 188.739 287.623C212.287 149.792 264.276 4.94916 329.813 1.07927C331.486 0.98049 333.086 1.8702 333.982 3.2862Z" fill="white"/>
<path fill-rule="evenodd" clip-rule="evenodd" d="M329.798 0.829716C331.569 0.725151 333.252 1.66594 334.193 3.15252C366.175 53.685 351.954 110.885 323.203 163.857C300.546 205.601 268.834 244.777 243.503 276.07C236.688 284.489 230.335 292.337 224.745 299.512C223.416 301.216 221.227 301.891 219.157 301.291L192.201 293.478C189.645 292.737 188.044 290.206 188.492 287.581C200.269 218.653 219.158 147.962 243.302 94.0135C255.374 67.0398 268.765 44.2391 283.246 27.9358C297.726 11.6345 313.32 1.80271 329.798 0.829716ZM333.77 3.41991C332.919 2.07449 331.403 1.23585 329.828 1.32885C313.537 2.2908 298.056 12.0155 283.62 28.2679C269.186 44.5182 255.819 67.2681 243.758 94.2177C219.637 148.115 200.757 218.762 188.985 287.665C188.58 290.038 190.026 292.327 192.341 292.998L219.296 300.811C221.176 301.356 223.151 300.743 224.35 299.204C229.95 292.018 236.311 284.16 243.131 275.735C268.46 244.443 300.131 205.317 322.763 163.619C351.49 110.692 365.602 53.7148 333.77 3.41991Z" fill="black"/>
<path d="M316.859 34.5541C260.482 48.622 218.094 202.652 202.86 283.365C202.364 285.99 204.048 288.473 206.65 289.073L217.535 291.585C219.844 292.118 222.196 290.98 223.21 288.838C267.01 196.365 363.755 87.7838 321.304 36.0719C320.23 34.7641 318.5 34.1445 316.859 34.5541Z" fill="#642AB5"/>
<path fill-rule="evenodd" clip-rule="evenodd" d="M321.111 36.2305C320.095 34.9931 318.462 34.4117 316.919 34.7967C302.916 38.2909 289.741 50.4913 277.611 68.1569C265.486 85.8141 254.434 108.889 244.664 134.058C225.123 184.394 210.721 243.064 203.105 283.411C202.636 285.899 204.23 288.258 206.706 288.829L217.591 291.341C219.786 291.848 222.02 290.767 222.984 288.731C233.94 265.6 248.205 241.465 262.771 217.474C265.224 213.434 267.685 209.399 270.14 205.373C282.269 185.484 294.257 165.827 304.381 147.051C316.555 124.472 326.023 103.188 329.8 84.3294C333.576 65.4744 331.658 49.0792 321.111 36.2305ZM316.798 34.3116C318.539 33.8772 320.366 34.535 321.497 35.9132C332.175 48.9205 334.083 65.4899 330.29 84.4276C326.498 103.361 317.001 124.698 304.821 147.288C294.69 166.077 282.694 185.748 270.565 205.636C268.11 209.661 265.65 213.696 263.199 217.733C248.633 241.725 234.38 265.84 223.436 288.945C222.371 291.193 219.903 292.388 217.479 291.829L206.594 289.317C203.865 288.687 202.093 286.08 202.614 283.319C210.233 242.952 224.642 184.251 244.198 133.877C253.975 108.691 265.043 85.576 277.199 67.8739C289.348 50.18 302.613 37.8513 316.798 34.3116Z" fill="black"/>
<path d="M121.5 159.5C136.893 164.888 163.085 245.987 175.587 290.422C176.365 293.187 174.635 296.009 171.827 296.613L140.452 303.365C138.637 303.755 136.757 303.107 135.556 301.691C118.694 281.823 95.4663 258.278 82.6377 250.763C80.0496 249.246 77.0618 251.113 75.9634 253.904C67.8998 274.395 31.4238 325.164 26 322C20 318.5 7.49528e-06 265 1.00001 202.5C2.00001 140 101.5 152.5 121.5 159.5Z" fill="white"/>
<path fill-rule="evenodd" clip-rule="evenodd" d="M94.3992 154.228C106.565 155.408 116.556 157.505 121.583 159.264C123.577 159.962 125.707 161.867 127.927 164.695C130.154 167.532 132.496 171.329 134.908 175.863C139.73 184.932 144.842 196.975 149.861 210.23C159.9 236.742 169.575 268.133 175.827 290.354C176.645 293.261 174.827 296.223 171.88 296.858L140.505 303.609C138.598 304.019 136.625 303.338 135.365 301.853C126.939 291.924 116.922 281.077 107.409 271.774C97.8922 262.465 88.8969 254.719 82.5113 250.978C81.3022 250.27 80.0004 250.347 78.8569 250.94C77.7077 251.536 76.7252 252.651 76.196 253.996C72.1518 264.273 61.0004 282.109 50.194 296.97C44.7887 304.403 39.4621 311.101 35.1441 315.747C32.9864 318.068 31.0726 319.885 29.5214 321.024C28.7468 321.593 28.0505 322.002 27.4506 322.217C26.8562 322.43 26.3074 322.469 25.874 322.216C25.459 321.974 25.0062 321.531 24.5237 320.923C24.038 320.311 23.5094 319.516 22.9461 318.55C21.8195 316.617 20.5452 313.985 19.1911 310.737C16.4826 304.24 13.4479 295.259 10.6331 284.438C5.00343 262.795 0.249617 233.772 0.750039 202.496C1.00128 186.793 7.44457 175.785 17.2853 168.231C27.1149 160.686 40.3195 156.599 54.0907 154.69C67.8653 152.78 82.2295 153.047 94.3992 154.228ZM17.5897 168.628C7.86795 176.09 1.49873 186.957 1.24998 202.504C0.750398 233.728 5.49659 262.705 11.117 284.312C13.9271 295.116 16.9549 304.073 19.6526 310.544C21.0017 313.781 22.2665 316.391 23.3781 318.298C23.934 319.252 24.4493 320.025 24.9153 320.612C25.3844 321.203 25.791 321.589 26.126 321.784C26.3706 321.927 26.7424 321.94 27.2821 321.746C27.8163 321.555 28.4677 321.178 29.2254 320.621C30.7386 319.51 32.6272 317.72 34.7779 315.406C39.0766 310.782 44.3899 304.101 49.7896 296.676C60.5929 281.82 71.7114 264.027 75.7307 253.813C76.3 252.366 77.3605 251.153 78.6268 250.496C79.899 249.837 81.3851 249.739 82.7641 250.547C89.2071 254.321 98.24 262.106 107.759 271.416C117.283 280.731 127.311 291.59 135.746 301.53C136.889 302.876 138.675 303.491 140.399 303.12L171.775 296.369C174.444 295.794 176.084 293.114 175.346 290.49C169.096 268.276 159.425 236.9 149.394 210.407C144.378 197.159 139.274 185.139 134.466 176.098C132.062 171.577 129.735 167.808 127.534 165.004C125.327 162.193 123.271 160.385 121.417 159.736C116.444 157.995 106.497 155.904 94.3509 154.725C82.208 153.547 67.8847 153.282 54.1593 155.185C40.4306 157.088 27.3227 161.157 17.5897 168.628Z" fill="black"/>
<path d="M107.563 186.343L85.7322 222.478C84.2483 224.934 85.1004 228.19 87.3308 229.995C101.599 241.547 128.645 275.98 143.084 295.409C144.259 296.99 146.239 297.732 148.164 297.316L159.319 294.904C161.726 294.384 163.401 292.188 162.938 289.769C158.681 267.528 132.532 216.307 116.153 186.481C114.309 183.123 109.544 183.064 107.563 186.343Z" fill="#642AB5"/>
<path fill-rule="evenodd" clip-rule="evenodd" d="M115.934 186.601C114.185 183.416 109.661 183.355 107.777 186.473L85.9462 222.607C84.538 224.938 85.337 228.06 87.4881 229.801C94.6439 235.595 104.987 247.109 115.335 259.589C125.689 272.074 136.063 285.543 143.284 295.26C144.401 296.762 146.282 297.467 148.112 297.071L159.266 294.66C161.559 294.164 163.127 292.083 162.693 289.816C160.571 278.731 152.984 260.393 143.865 241.076C134.751 221.768 124.122 201.511 115.934 186.601ZM107.349 186.214C109.428 182.774 114.434 182.83 116.372 186.361C124.564 201.277 135.198 221.543 144.318 240.863C153.433 260.173 161.048 278.566 163.184 289.722C163.676 292.293 161.892 294.603 159.371 295.148L148.217 297.56C146.196 297.997 144.117 297.218 142.883 295.558C135.665 285.846 125.297 272.384 114.951 259.908C104.599 247.425 94.2855 235.948 87.1735 230.19C84.8638 228.32 83.9585 224.93 85.5183 222.348L107.349 186.214Z" fill="black"/>
</svg>
